<svg width="512px" height="512px" viewBox="0 0 512 512" xmlns="http://www.w3.org/2000/svg"><g><path fill="none" d="M0 0h512v512H0z"/><path fill-rule="nonzero" d="M256 490.659a160 160 0 0 0 160 -160c0 -18.461 -4.899 -36.195 -10.659 -52.707 -35.555 35.136 -62.557 52.707 -81.059 52.707 85.213 -149.347 38.4 -213.347 -89.6 -298.653 10.659 106.653 -59.648 155.171 -88.285 182.115A160 160 0 0 0 256 490.659zm15.133 -378.979c69.155 58.653 69.469 104.256 16.064 197.853 -16.221 28.445 4.323 63.808 37.056 63.808 14.691 0 29.539 -4.259 45.219 -12.707a117.347 117.347 0 1 1 -193.856 -115.456c2.688 -2.525 16.32 -14.627 16.931 -15.133 9.053 -8.099 16.477 -15.296 23.843 -23.168 26.24 -28.125 45.091 -59.293 54.755 -95.203z"/></g></svg>