<svg width="192px" height="192px" viewBox="0 0 192 192" xmlns="http://www.w3.org/2000/svg"><g><path fill="none" d="M0 0h192v192H0z"/><path fill-rule="nonzero" d="M96 183.997a60 60 0 0 0 60 -60c0 -6.923 -1.837 -13.573 -3.997 -19.765 -13.333 13.176 -23.459 19.765 -30.397 19.765 31.955 -56.005 14.4 -80.005 -33.6 -111.995 3.997 39.995 -22.368 58.189 -33.107 68.293A60 60 0 0 0 96 183.997zm5.675 -142.117c25.933 21.995 26.051 39.096 6.024 74.195 -6.083 10.667 1.621 23.928 13.896 23.928 5.509 0 11.077 -1.597 16.957 -4.765a44.005 44.005 0 1 1 -72.696 -43.296c1.008 -0.947 6.12 -5.485 6.349 -5.675 3.395 -3.037 6.179 -5.736 8.941 -8.688 9.84 -10.547 16.909 -22.235 20.533 -35.701z"/></g></svg>