<svg width="72px" height="72px" viewBox="0 0 72 72" xmlns="http://www.w3.org/2000/svg"><g><path fill="none" d="M0 0h72v72H0z"/><path fill-rule="nonzero" d="M36 68.999a22.5 22.5 0 0 0 22.5 -22.5c0 -2.596 -0.689 -5.09 -1.499 -7.412 -5 4.941 -8.797 7.412 -11.399 7.412 11.983 -21.002 5.4 -30.002 -12.6 -41.998 1.499 14.998 -8.388 21.821 -12.415 25.61A22.5 22.5 0 0 0 36 68.999zm2.128 -53.294c9.725 8.248 9.769 14.661 2.259 27.823 -2.281 4 0.608 8.973 5.211 8.973 2.066 0 4.154 -0.599 6.359 -1.787a16.502 16.502 0 1 1 -27.261 -16.236c0.378 -0.355 2.295 -2.057 2.381 -2.128 1.273 -1.139 2.317 -2.151 3.353 -3.258 3.69 -3.955 6.341 -8.338 7.7 -13.388z"/></g></svg>