<svg width="16px" height="16px" viewBox="0 0 16 16" xmlns="http://www.w3.org/2000/svg"><g><path fill="none" d="M0 0h16v16H0z"/><path fill-rule="nonzero" d="M8 15.333a5 5 0 0 0 5 -5c0 -0.577 -0.153 -1.131 -0.333 -1.647 -1.111 1.098 -1.955 1.647 -2.533 1.647 2.663 -4.667 1.2 -6.667 -2.8 -9.333 0.333 3.333 -1.864 4.849 -2.759 5.691A5 5 0 0 0 8 15.333zm0.473 -11.843c2.161 1.833 2.171 3.258 0.502 6.183 -0.507 0.889 0.135 1.994 1.158 1.994 0.459 0 0.923 -0.133 1.413 -0.397a3.667 3.667 0 1 1 -6.058 -3.608c0.084 -0.079 0.51 -0.457 0.529 -0.473 0.283 -0.253 0.515 -0.478 0.745 -0.724 0.82 -0.879 1.409 -1.853 1.711 -2.975z"/></g></svg>